<?xml version="1.0" encoding="utf-8"?>
<!-- Generator: Adobe Illustrator 27.9.0, SVG Export Plug-In . SVG Version: 6.00 Build 0)  -->
<svg version="1.1" id="Layer_1" xmlns="http://www.w3.org/2000/svg" xmlns:xlink="http://www.w3.org/1999/xlink" x="0px" y="0px"
	 viewBox="0 0 258.466 238.85" style="enable-background:new 0 0 258.466 238.85;" xml:space="preserve">
<style type="text/css">
	.st0{stroke:#000000;stroke-width:3;stroke-miterlimit:10;}
	.st1{stroke:#000000;stroke-width:2.4418;stroke-miterlimit:10;}
</style>
<g>
	<g>
		<g>
			<g>
				<g>
					<g>
						<path d="M139.747,76.875c0.448-0.091-0.236-1.158-0.273-1.39C138.924,76.055,139.904,77.162,139.747,76.875z"/>
						<polygon points="134.363,82.596 134.26,82.077 133.825,83.676 						"/>
						<path d="M128.172,85.515c1.504,1.656,2.091-1.377,3.52-1.213l0.391,0.354l-0.243-1.792
							C130.618,83.746,129.371,85.606,128.172,85.515z"/>
						<path d="M122.887,82.899c0.562,0.656-0.404,0.987,0.881-0.13c-0.113-0.047-0.158-0.084-0.23-0.125
							C123.41,82.72,123.225,82.805,122.887,82.899z"/>
						<path d="M123.537,82.645C124.163,82.281,122.811,82.215,123.537,82.645L123.537,82.645z"/>
						<path d="M120.736,84.506l0.538-1.08c-0.391-0.359-1.201-0.097-1.072-0.554C119.498,83.658,119.889,84.014,120.736,84.506z"/>
						<path d="M120.595,86.304l0.309-0.496C120.737,85.659,120.589,85.65,120.595,86.304z"/>
						<path d="M121.561,84.76l-0.657,1.048c0.273,0.253,0.584,0.874,0.329-0.422C121.429,85.995,121.353,85.356,121.561,84.76z"/>
						<path d="M122.234,84.801c0.681,0.192,1.428,0.161,0.886,1.24C124.634,84.994,123.746,83.75,122.234,84.801z"/>
						<path d="M128.808,87.665l0.912,0.26l0.248-0.913C129.843,87.466,128.479,87.078,128.808,87.665z"/>
						<path d="M114.919,86.045c0.142,0.437,0.81,0.96,1.124,1.456l0.409-0.773C115.993,86.6,115.252,86.634,114.919,86.045z"/>
						<path d="M116.043,87.501l-0.612,1.157C116.318,88.338,116.313,87.929,116.043,87.501z"/>
						<polygon points="121.463,88.524 122.314,86.299 121.173,88.686 						"/>
						<polygon points="111.276,87.715 111.36,86.507 111.087,88.401 						"/>
						<path d="M108.954,89.023c0.022-0.977-1.18-1.076-0.991-1.761c-0.585,0.452-0.819,1.394-1.031,2.241
							C107.304,88.91,107.913,88.727,108.954,89.023z"/>
						<path d="M106.513,90.791c0.176-0.316,0.291-0.785,0.42-1.288C106.736,89.82,106.583,90.215,106.513,90.791z"/>
						<path d="M113.721,89.222c-0.192-0.214-0.642-0.798-1.304-0.82l0.923,0.98C113.456,89.333,113.587,89.278,113.721,89.222z"/>
						<path d="M113.37,89.413l-0.031-0.031c-0.42,0.16-0.711,0.271-0.836,0.318C112.613,89.664,112.874,89.578,113.37,89.413z"/>
						<path d="M113.817,89.182c-0.035,0.015-0.062,0.025-0.096,0.04C113.811,89.319,113.851,89.346,113.817,89.182z"/>
						<path d="M118.481,88.658c-0.249,0.912-1.079,2.158,0.513,2.611C119.017,90.286,118.106,90.03,118.481,88.658z"/>
						<path d="M114.968,90.409l1.132-0.214c-0.165-0.296-0.559-0.656-0.436-1.108L114.968,90.409z"/>
						<polygon points="114.65,91.011 114.968,90.409 114.549,90.489 						"/>
						<path d="M108.752,91.055c-0.195,0.711-0.65,0.979-1.149,1.315c0.684-0.046,1.338-0.206,1.902-0.478
							C109.412,91.491,109.35,90.72,108.752,91.055z"/>
						<path d="M111.045,90.359c-0.017,0.041-0.05,0.072-0.065,0.112C111.086,90.54,111.148,90.549,111.045,90.359z"/>
						<path d="M102.31,94.878l0.185,0.17c-0.025-0.071-0.049-0.137-0.075-0.209L102.31,94.878z"/>
						<path d="M109.704,92.062c0.539,0.018,0.663-0.388,0.74-0.863c-0.268,0.27-0.575,0.509-0.939,0.693
							C109.547,92.073,109.592,92.185,109.704,92.062z"/>
						<path d="M105.295,92.034c0.341,0.135,0.694,0.218,1.052,0.28C105.952,92.052,105.231,91.695,105.295,92.034z"/>
						<path d="M110.681,90.22c0.013-0.029,0.022-0.059,0.04-0.082C110.462,89.956,110.537,90.07,110.681,90.22z"/>
						<path d="M110.681,90.22c-0.143,0.273-0.183,0.642-0.238,0.979c0.22-0.216,0.405-0.457,0.536-0.728
							C110.887,90.414,110.774,90.315,110.681,90.22z"/>
						<path d="M104.243,103.072c-0.434-1.109,0.232-2.642,1.761-1.959c0.584-1.264-1.727-4.493-3.509-6.065
							c0.193,0.482,0.398,0.915-0.295,2.022c0.627,0.42,2.859,0.321,2.481,1.691c-1.054,1.18-1.26,0.134-2.171-0.129
							c1.181,1.079-0.751,2.743,0.471,4.573l0.826-1.241C103.976,102.258,103.789,102.945,104.243,103.072z"/>
						<path d="M104.443,94.256l0.346-0.327c-0.556,0.034-1.094-0.236-2.108-0.783c-0.432,0.848-0.384,1.313-0.261,1.692l2.086-0.809
							L104.443,94.256z"/>
						<path d="M106.624,93.05c0.236,1.32-0.511,2.284,0.692,3.261c1.163-0.652,0.378-1.375,0.854-2.223
							c-1.8,1.212,0.248-0.914-1.468-0.911c0.287-0.379,0.6-0.603,0.9-0.806c-0.416,0.025-0.836,0.009-1.256-0.056
							c0.031,0.02,0.053,0.034,0.079,0.051l0.007-0.008l0.007,0.019c0.153,0.106,0.222,0.181,0.088,0.142
							c0,0.017-0.021,0.034-0.029,0.043c0.064,0.169,0.096,0.328,0.122,0.482c-0.676,0.026-0.233-0.261-0.122-0.482
							c-0.021-0.06-0.031-0.122-0.059-0.185c-0.005-0.006-0.01-0.008-0.014-0.011l-1.637,1.564
							C105.277,93.895,105.775,93.617,106.624,93.05z"/>
						<path d="M119.153,94.272c-0.109-0.075-0.146-0.159-0.191-0.242C118.904,94.233,118.903,94.353,119.153,94.272z"/>
						<path d="M118.019,93.947c0.064-0.23-0.041-0.753,0.475-0.851c0.565,0.161,0.264,0.56,0.468,0.934
							c0.129-0.441,0.57-1.298-0.567-1.453l-0.062,0.224c-0.972-0.029-2.669-1.008-2.609-1.233
							C116.451,92.51,117.008,93.164,118.019,93.947z"/>
						<path d="M112.407,93.822l-1.344,1.342l1.304,0.619l-0.331-0.587C113.069,94.997,112.515,94.344,112.407,93.822z"/>
						<polygon points="101.849,94.385 101.477,93.05 101.371,95.235 						"/>
						<polygon points="99.819,95.532 99.386,94.423 99.139,95.333 						"/>
						<path d="M36.427,153.548l0.623-0.051C36.781,153.472,36.586,153.497,36.427,153.548z"/>
						<path d="M33.099,151.694l-0.356,0.473C33.05,151.964,33.225,151.788,33.099,151.694z"/>
						<path d="M48.275,120.197c-1.168-0.672-2.68-1.858-2.023-0.691l0.771,1.074C47.407,120.139,47.84,120.094,48.275,120.197z"/>
						<path d="M16.629,143.855c0.268,0.014,0.55,0.029,0.829,0.043c-0.554-0.23-1.046-0.453-1.5-0.665
							C16.162,143.431,16.379,143.643,16.629,143.855z"/>
						<path d="M25.083,145.798c-0.619-0.016-1.259-0.021-1.922-0.015C23.789,145.809,24.431,145.813,25.083,145.798z"/>
						<path d="M55.453,162.066l1.163-0.884C55.764,160.739,55.825,161.527,55.453,162.066z"/>
						<path d="M78.506,106.2c-0.815-0.175-1.382-0.142-1.827,0C77.719,106.532,78.781,107.27,78.506,106.2z"/>
						<path d="M28.637,165.051c0.395-0.058,0.641-0.228,0.768-0.488C29.007,164.605,28.725,164.737,28.637,165.051z"/>
						<path d="M74.956,107.024c0.161,0.068,0.293,0.078,0.447,0.126c0.343-0.405,0.707-0.772,1.276-0.951
							C75.908,105.95,75.153,105.93,74.956,107.024z"/>
						<path d="M121.61,198.333c0.021,0.077,0.066,0.133,0.078,0.217C121.785,198.403,121.723,198.359,121.61,198.333z"/>
						<path d="M134.883,220.227c-0.229-0.03-0.542-0.194-0.844-0.334C134.14,220.048,134.385,220.168,134.883,220.227z"/>
						<path d="M91.121,99.04C91.53,98.752,91.13,98.877,91.121,99.04L91.121,99.04z"/>
						<path d="M95.499,102.658c-0.032,0.177-0.024,0.38,0.094,0.656C95.495,103.014,95.472,102.804,95.499,102.658z"/>
						<path d="M73.997,116.451c-0.014,0.005-0.025,0.009-0.04,0.014C74.199,116.632,74.155,116.599,73.997,116.451z"/>
						<path d="M92.046,99.256c-0.236-0.065-0.486-0.093-0.736-0.078C91.445,99.225,91.672,99.256,92.046,99.256z"/>
						<path d="M91.691,98.743c0.179-0.02,0.313-0.048,0.444-0.071C92.098,98.449,91.99,98.35,91.691,98.743z"/>
						<path d="M90.53,99.399c0.246-0.14,0.51-0.197,0.779-0.221c-0.125-0.038-0.194-0.087-0.189-0.137
							C90.999,99.121,90.826,99.232,90.53,99.399z"/>
						<path d="M84.262,182.49c0.01,0.052,0.03,0.093,0.036,0.158C84.991,182.403,84.757,182.377,84.262,182.49z"/>
						<path d="M42.484,137.919c0.015-0.022,0.012-0.058,0.024-0.081c-0.027-0.003-0.061-0.007-0.085-0.01L42.484,137.919z"/>
						<path d="M41.3,139.556c-0.014-1.787,0.459-1.792,1.122-1.728l-2.142-3.137L41.3,139.556z"/>
						<path d="M44.661,157.486l-0.553-1.616c2.229-0.998,2.878,0.098,2.616-1.903c-2.063,3.519-4.47-1.896-6.529,1.62l-0.324-1.141
							c0.189,0.145,0.335-0.049,0.521,0.095c-0.497-2.471-2.427,2.048-3.972,0.573c-0.487-0.611-0.652-1.368,0.006-1.567
							l-1.882,0.143c-0.374-0.287,0.058-0.859,0.43-0.574l-2.304-0.853l0.072-0.098c-0.133,0.11-0.379,0.186-0.499,0.336
							c-0.144,0.138-0.303,0.276-0.466,0.404c-0.325,0.257-0.668,0.474-0.891,0.594c0.017-0.653,0.405-0.275,0.602-0.745
							c-0.39,0.166-0.814,0.313-1.273,0.443c0.202-0.49,0.64-0.847,1.015-1.066c0.38-0.216,0.7-0.294,0.839-0.135
							c0.889-1.831,0.768-1.605,0.312-1.317c-0.217,0.15-0.501,0.324-0.69,0.314c-0.183-0.007-0.288-0.206,0.008-0.722
							c0.266-0.054,0.515-0.117,0.748-0.189c0.755-0.908,1.005-1.192,1.16-1.404c0.168-0.205,0.224-0.346,0.908-0.799
							c-0.376,0.227-1.206,0.815-1.924,1.499c-0.739,0.673-1.397,1.426-2.12,1.617c0.101-0.294,0.103-0.459-1.034-0.134
							c1.451-0.871,0.867-0.777,0.445-0.908l2.209-1.002c-0.839,0.182-2.014,0.665-3.308,0.958
							c-0.208-0.324,1.746-0.971,3.447-1.488c0.09-0.125-0.739,0.11-1.634,0.405c-0.902,0.291-1.842,0.656-2.5,0.512
							c0.543-0.543-0.845-0.391-3.744-0.627c0.75-0.351,2.202-0.162,3.039-0.34c-1.027,0.034-2.091,0.047-3.193,0.041
							c-0.033-0.059,0.897-0.099,1.361-0.121c-0.716-0.043-1.655,0.001-2.598,0.034c-0.947,0.031-1.903,0.046-2.78-0.123
							c-1.677,0.021-1.444-0.143-0.727-0.319c0.707-0.182,1.95-0.349,1.981-0.499c0.405-0.09,0.279-0.183-0.753-0.33
							c1.346-0.037,2.416,0.153,4.066,0.191c-1.268-0.269-1.595-0.43-2.111-0.576c-0.491-0.159-1.174-0.301-2.605-0.794
							c1.093-0.055,2.136-0.086,3.13-0.094c-1.546-0.062-2.951-0.265-4.05-0.608c-1.108-0.338-1.903-0.82-2.482-1.32
							c-1.47-0.071-2.82-0.104-3.537-0.084c0.083-0.42,0.22-0.865,0.41-1.335c0.744-0.005,1.515,0.358,2.457,0.798
							c-0.119-0.119-0.236-0.236-0.36-0.338c1.774-0.059,3.01,0.58,4.292,1.157c-0.812-0.051-1.632-0.103-2.432-0.154
							c1.435,0.608,3.301,1.15,5.24,1.472c-0.295-0.104-0.461-0.236-0.466-0.352c0.432,0.145,0.849,0.259,1.193,0.308
							c0.366,0.05-0.219-0.142-0.796-0.41c1.216,0.211,2.407,0.434,3.573,0.669l-1.256-0.343c1.12-0.039,2.15-0.034,3.09,0.013
							c-1.067-0.685-2.249-1.596-2.871-2.598c-0.634-0.996-0.677-2.098,0.267-3.036c0.334,0.71,0.879,1.16,1.491,1.618
							c0.619,0.455,1.307,0.917,2.081,1.579c-1.053-0.589-1.265-0.256-1.239,0.18c0.007,0.445,0.289,0.977-0.311,1.041
							c0.64-0.076,1.498,0.497,1.77,0.711c-0.305-0.516-0.483-1.092-0.535-1.728c1.339,1.047,1.301,0.643,2.101,0.958
							c-2.701-2.042-0.504-1.976-0.375-3.058c0.586,0.839,1.027,1.77,0.245,1.873c1.095,0.731,0.683-0.049,0.46-0.967
							c-0.231-0.914-0.417-1.897,0.596-1.315c-0.316,0.178-0.423,0.057-0.286,0.56c0.004-0.126,0.033-0.236,0.08-0.33
							c0.051-0.096,0.179-0.204,0.288-0.281c0.232-0.161,0.511-0.258,0.78-0.289c0.538-0.062,1.034,0.142,1.022,0.635l-0.288,0.16
							c2.132-0.62,6.033-2.846,5.233-5.29c0.161,0.288,1.062,2.901,1.164,3.424l-0.157-9.433c0.63,2.127,4.066,6.272,2.957,8.171
							c0.605,0.058,1.345,0.11,2.006-1.061c-0.455-0.129-2.162-2.48-1.809-2.87c2.254,1.63,1.398,0.78,3.777,1.952
							c-0.684-0.195-1.625-3.553-0.816-3.816c0.102,0.521,1.521,3.033,1.396,3.489l0.446-3.948
							c-0.212,0.774,1.145,2.622,1.978,3.281c-0.481-0.503,1.665-0.724,2.026-1.266l-1.139-0.324c2.359-0.557,0.076-5.29,2.274-6.14
							c0.043,0.752,1.208,4.175,2.47,4.045c-0.248-1.796-1.379-8.548-0.073-10.642l0.784,0.72l0.958-1.701
							c0.22,2.775,0.052,8.913-0.409,11.489c1.137,0.325,0.723,0.945,1.884,0.294c0.821,0.635-0.05,1.579-0.38,1.796l3.049-0.788
							c-0.991-1.764,1.266-2.842,0.438-4.309l-2.134,3.33c-0.987-1.759-0.706-6.004,1.425-6.623
							c0.848,0.485,1.166,3.421,1.496,4.009c-0.042-0.749,1.308-2.09,1.701-1.732l-0.376,1.373c1.427,0.161,0.649-3.269,2.799-2.16
							c0.512-0.101,2.479,1.697,2.046,0.581c-1.733-1.724-4.937-8.084-5.183-9.881c0.227,0.064,3.343,0.846,4.353,1.625
							c1.527,1.272,0.718,4.421,2.024,5.516c-0.209-0.511-0.086-1.322-0.006-1.602c0.682,0.197,0.534,1.636,1.47,0.915
							c-0.704-1.93,2.194-0.852-0.25-1.795c0.769-1.013,1.264-0.136,2.423-0.786c-0.949-1.012-0.857-4.573-0.086-5.585
							c0.163,0.498,0.683,1,0.927,1.227c2.169-0.827,3.69-0.523,5.646-1.434c0.392,0.362,1.59,0.456,1.568,1.441
							c0.125-0.46,0.085-1.208,0.664-1.539c1.923,1.043-1.222,0.886,0.577,2.383c-0.435-1.109,0.851-2.22,1.388-3.298
							c-1.052-1.532-2.129,0.623-2.668,1.701c-1.091-2.284-0.738-5.388,0.797-7.414c1.349-1.338,1.405,1.144,1.531,0.685
							c3.231-1.047,0.692-5.224,4.001-4.776c1.695,0.98,1.424,2.877,2.146,3.821c-1.056,1.179-2.465,0.038-3.331,0.522l1.428,0.166
							c-0.189,0.684-0.895,1.47-1.575,1.276c1.462,0.909,5.257-2.192,8.177-2.1c0.185-0.686,0.664-1.534,0.045-1.958l-0.645,0.557
							c-1.241-0.85,0.624-2.289-0.576-2.391c0.603-1.299,1.102-3.128,2.82-3.13l1.054,1.536c-0.261-0.471-1.387-0.554-1.54,0.14
							c0.234-1.015,3.218,1.225,2.824-1.254l-1.53-0.683c0.603-1.31,1-3.661,2.491-3.728c-1.346-1.371-0.197,0.324-1.993-1.176
							c1.901,2.024-3.226,1.411-0.803,3.336c-1.965-1.797-2.017-0.199-4.105-1.535c0.297,0.53,0.918,0.848-0.253,1.074
							c0.029,0.182,0.015,0.439,0.001,0.592c-0.039,0.001-0.054-0.003-0.09-0.007c0.032,0.013,0.057,0.024,0.088,0.037
							c-0.006,0.104-0.002,0.123,0.032,0.012c0.362,0.121,0.701,0.314,0.928,0.581c0.081,1.504-1.597,2.253-1.848,3.171
							c-0.743,0.034-0.04-0.751-0.656-1.175l-0.375,1.372c-0.662-1.178-2.605-1.239-1.487-2.646l-1.338,0.57
							c-1.097-0.315-2.289-0.081-2.701,0.743c-0.744,0.031-0.923,2.09-0.837,0.881l-1.699,1.733l-0.164-0.295
							c-2.103,0.812-3.221,4.003-6.587,2.911c-0.538,0.632-1.065,1.344-2.373,1.542l-0.724-0.947
							c-0.703,0.785-3.136,0.201-2.992,1.477c-2.294-2.382-4.553,1.408-6.336,1.64l0.595,1.402c-1.1,0.427-1.933,1.302-2.989,2.481
							l0.659,1.176c-0.663,1.538-3.334,0.527-5.073,1.507c-0.099-0.523,0.415-0.618,0.872-0.491
							c-3.454-1.722-3.584,4.152-6.483,3.08c-0.275,0.673-0.699,0.689-1.185,0.546c0.044-0.024,0.074-0.066,0.09-0.121
							c-0.057,0.009-0.132,0.042-0.206,0.08c-0.314-0.107-0.65-0.245-0.982-0.326c0.344,0.198,0.654,0.349,0.877,0.381
							c-0.362,0.203-0.859,0.624-1.271,1.193l-0.858-1.192c-0.037,0.039-0.075,0.053-0.111,0.098
							c-0.775-0.222-0.145,0.827,0.613,1.669c-0.178,0.348-0.313,0.728-0.362,1.137c-1.445-1.895-1.123,1.404-2.797-0.554
							c0.146,1.274-2.407,2.155-1.608,4.601c-0.162-0.291-0.394-0.356-0.102-0.518c-0.746,0.032-1.491,0.065-1.739,0.979
							l-1.052-1.534l-0.294,2.875c-1.304-0.619-1.925-1.044-1.715-2.71c-1.04,2.902-1.25,1.501-2.003,4.246l-0.428-1.112
							c-0.581,0.326-0.857,2.219-1.64,1.505c-1.156-0.7-2.85,0.019-4.798,0.882c-0.522,0.228-1.062,0.464-1.608,0.703
							c-0.733,0.318-1.483,0.627-2.251,0.91c-1.537,0.567-3.141,1.029-4.889,1.28c1.919,1.023,1.038,1.008-0.109,1.011
							c-1.146,0.002-2.663,0.072-1.432,0.987c-1.08-0.401-2.33-0.324-2.162-1.201c-0.993,0.922-2.36,1.21-3.495,1.59
							c-1.111,0.369-1.976,0.825-1.402,1.818c-1.421-0.244-0.996-0.869-1.92-0.973c-0.011,0.203,0.042,0.776-0.927,0.691
							c-0.974-0.082-0.522-0.521-0.511-0.925c-3.007,1.585,0.538,2.72,3.97,3.737c-2.897,0.124-3.437,0.558-1.626,1.434
							c-1.69-0.062-3.881,0.073-2.776-0.764c-0.53,0.189-2.39,0.756-3.741,1.362c-1.35,0.606-2.106,1.211-0.224,1.377
							c-1.237,0.05-1.486,0.549-1.237,0.676c-1.221,0.508-1.928,0.75-2.648,1.064c0.33,0.197,0.84,0.452,1.778,0.861
							c0.053-0.09,0.11-0.178,0.171-0.264c2.842,0.197,3.426,0.36,3.597,0.593c0.161,0.227-0.077,0.531,0.886,0.884l-0.506,0.001
							c-0.013,0.937,0.794,1.138,1.43,1.283c0.68,0.167,1.18,0.273,1.246,1.385l2.221-0.451c2.741-0.299,2.539,0.11,2.303,0.772
							c-0.267,0.645-0.439,1.612,1.321,1.874c0.148-0.231,0.309-0.456,0.482-0.674c1.214,0.044,0.388,0.797-0.417,1.766
							c-0.833,0.954-1.634,2.129-1.206,2.575c-0.027,0.29-0.938-0.008-1.579-0.122c0.681,1.393,1.374,1.227,2.183,0.802
							c0.822-0.418,1.888-1.027,3.242-0.558c-0.592,0.837-3.299,1.178-1.726,2.226c0.043,0.489,2.16,0.676,4.099,0.929
							c1.976,0.272,3.735,0.589,4.264,1.973c-0.041-0.909,0.056-1.742,1.419-1.686c0.427,0.147,0.789,0.509,1.169,0.966
							c0.176,0.221,0.415,0.497,0.555,0.722c0.117,0.213,0.237,0.427,0.363,0.626c0.506,0.796,1.127,1.344,2.198,0.514
							c0.039,0.263-0.005,0.472-0.09,0.647c1.133-0.121,3.208,0.501,4.337-0.416c-1.556,4.801,6.32,0.613,4.155,4.653l2.682,1.142
							l-0.286,0.379c1.499,1.137,2.593,0.474,3.685-0.193c0.233,0.477-0.244,0.708-0.388,0.903c1.965,2.087,2.294,2.041,5.373,1.088
							l-0.487,1.425c0.949-0.475,2.374,3.897,5.538,3.61c-0.102,0.137-0.286,0.366-0.571,0.452c3.462-0.14,4.402,7,7.907,2.728
							l2.37-0.254c-2.062-1.568,1.436-1.898,0.928-3.185c1.037,0.19,1.532,2.66,0.31,2.327l-0.044-0.33
							c-1.722,2.282,2.338,2.371,1.378,4.037c4.509,2.232,8.11,5.907,12.216,8.219l0.548-2.193l1.393,0.881
							c0.142,0.654-0.292,1.788-1.286,1.159c-0.037,1.388,2.225,0,2.478-0.406c1.612,1.86-1.99,1.842-1.393,2.218l0.922,0.302
							l-0.07-0.328c1.104-0.429,1.61-1.237,2.805-0.482c0.582,0.806-0.229,1.41,0.041,1.649c-0.075,0.136-0.004,0.257,0.446,0.308
							l1.742,1.135l0.08-1.919c1.211-0.325,1.678,0.992,1.752-1.19c-0.178,3.331,6.316,4.576,6.637,5.809
							c1.727-0.514,2.838,0.099,4.155,0.969c-0.177-0.501,0.529-2.332,1.615-1.487c-2.32,3.32,1.377,2.704,0.991,5.772
							c0.033-2.153,3.627,1.386,3.544-1.74c0.847,0.817-0.644,1.362-0.328,2.599c3.108-0.116,4.769,3.672,7.955,4.765
							c0.293-0.442,0.178-1.416,1.176-1.775l0.317,3.154c0.702,0.079,1.96-2.408,2.164-0.228c0.058-0.472,0.148-1.182,0.616-1.124
							c4.557,5.323,12.757,4.374,16.345,11.743c-0.314-1.323,0.262-1.133,0.885-0.846c-0.279-0.424,0.619-1.147,0.876-1.82
							l1.519,3.053c1.375-1.517,2.689,1.272,3.832-0.269l-0.935-0.109c2.08-1.433,0.887-5.163,2.383-7.623
							c-2.347,1.638-1.28-4.945-4.881-2.728c-0.144-0.739,0.79-0.629,0.878-1.336c-1.057,0.834-1.757,0.753-2.573-0.304l0.264-0.205
							c-3.16-1.334-3.887-3.093-6.901-5.605l-0.414,1.389c-0.64-0.554-0.585-1.029-0.76-1.524c-1.845,1.461,1.991,1.192,0.116,2.888
							c0.387-3.068-5.12-2.762-4.236-6.012c-1.113-0.61-0.441,1.628-1.554,1.017l0.119-0.943l-0.82,0.862
							c-0.647-0.557-0.497-1.735-0.172-2.415c0.137,0.173,0.606,0.082,0.827,0.127c-0.463-1.431-2.856-1.108-3.023-1.583
							l0.821,1.055c-3.45-0.886-6.641-3.897-10.444-3.867l-0.09,0.712c-2.839-0.1-1.464-1.609-4.212-2.415l0.165-0.094
							c-0.809,0.328-1.629,0.274-2.272-0.152c0.994-0.362-0.463-1.973,0.764-2.305c-3.072-0.121-1.701,0.283-4.484,1.628l0.147-1.18
							c-1.022,0.597-1.317,1.041-2.69,0.641c1.463-0.306,0.003-1.916,1.732-2.43c-1.459-3.526-5.008,0.127-4.534-3.649
							c-2.635,2.089,1.448,2.702,0.471,2.93c0.088,1.186-2.062,1.512-2.733,0.807c-0.798-0.5,0.433-4.228-1.683-5.282
							c0.201,0.123,0.324-0.075,0.525,0.046c-0.414-1.108-2.029,0.129-2.39-1.506c-1.409,1.361-1.194-0.754-2.461,1.263l2.172,0.529
							c-1.376-0.026-3.695,1.89-4.853-0.249c0.364-0.35,1.191-0.624,1.721-0.741c-0.195-0.896-1.224-0.123-1.43-1.046
							c1.268-2.019,2.57,0.776,4.581-0.209c-0.092-1.184-3.006,0.355-1.217-1.609c-2.372,2.447-1.864-1.455-4.448,0.004l0.76-1.209
							c-0.329,0.08-1.107,0.428-1.502,0.178l1.61-1.236c-1.882,0.785-1.562-2.386-3.061-2.21c2.32,1.179-0.287,1.789,0.199,3.222
							c-3.727,0.182,0.113-4.154-3.381-5.233c0.524,0.05,1.213,1.611,0.232,1.837c-0.467-0.579-1.009-1.485-1.031-2.341
							c-2.242-0.853-0.363,1.465-1.667,1.764c0.096-1.912-1.363,0.077-2.545,0.079l0.671-1.283c-1.962-2.09-2.047,2.329-3.68,0.194
							l1.852-1.29l-1.368-0.138l1.003-1.332c-1.796,0.431-2.029-0.05-3.012-1.093c-0.199,1.049-1.386,2.238-2.469,1.716
							c-0.321-1.143,1.049-1.001-0.552-1.615c0.764-0.62,1.668-1.427,1.699,0.098c0.288-0.382,0.76-0.625,1.048-1
							c-0.317-1.287-1.854-1.237-2.405-1.514c0.184,0.159,0.399,0.361,0.431,0.611l-3.12,0.617
							c-0.089-0.662,0.388-0.904,0.858-1.139c-0.515-0.096-1.132,0.33-1.84,0.096c0.719-0.95,1.247-2.045,2.426-2.047l-2.689,0.052
							c0.1-0.525-0.409-1.806,0.064-2.047c-0.829-1.221-3.895,0.52-4.995-1.096c-0.186,0.16-0.448,0.268-0.851,0.245
							c-1.311-0.996-1.907-2.945-4.364-2.421l0.022-2.375c-1.557-0.283,0.063,3.04-2.528,2.568c-1.886-0.238,0.256-1.9-0.02-2.711
							c-1.279,0.526-3.65,1.718-4.29-0.563C43.913,156.913,44.141,157.387,44.661,157.486z M30.462,151.021
							c0.426-0.118,1.394-0.666,0.812-0.007C29.83,152.125,30.264,151.457,30.462,151.021z M22.938,143.934
							c0.493,0.296-0.08,0.305-1.219,0.241C21.774,144.018,22.134,143.906,22.938,143.934z M86.743,102.427
							c-0.004,0.028-0.006,0.048-0.005,0.08C85.77,102.343,86.123,102.422,86.743,102.427z M88.52,102.277
							c0.065-0.254-0.032-0.431-0.183-0.583c0.052,0.381-0.276,0.564-0.705,0.655C87.902,102.641,88.209,102.785,88.52,102.277z
							 M84.359,193.565l-0.11-0.487C85.093,193.053,84.735,193.29,84.359,193.565z"/>
						<path d="M24.085,145.581c-0.456-0.054-0.921-0.131-1.387-0.211C23.021,145.486,23.5,145.57,24.085,145.581z"/>
						<path d="M55.239,162.229c0.011,0.019,0.03,0.024,0.042,0.041c0.068-0.062,0.124-0.132,0.172-0.204L55.239,162.229z"/>
						<path d="M70.438,124.467c-0.4-0.04-0.687-0.197-0.919-0.39C69.654,124.405,69.923,124.608,70.438,124.467z"/>
						<path d="M95.453,96.256l-0.804,0.799c0.436-0.287,0.739-0.08,1.074,0.015C95.555,96.775,95.161,96.421,95.453,96.256z"/>
						<path d="M107.682,100.357c0.065-0.227,0.291-0.16,0.353-0.388l-0.327-0.589C107.125,99.706,106.937,100.395,107.682,100.357z"
							/>
						<path d="M98.412,100.174c0.599,1.063,1.028,0.402,1.607-0.124c-0.039,0.023-0.073,0.051-0.12,0.057
							C99.368,98.474,98.889,99.326,98.412,100.174z"/>
						<path d="M100.159,99.939c0.184-0.151,0.383-0.281,0.612-0.325C100.557,98.96,100.456,99.606,100.159,99.939z"/>
						<path d="M90.086,100.639c0.455,0.131-0.467-1.502-0.073-1.14C89.705,97.929,88.68,102.21,90.086,100.639z"/>
						<polygon points="100.683,103.536 99.795,102.294 99.936,103.568 						"/>
						<path d="M94.868,105.08l1.26-0.138c-0.125-0.22-0.051-0.419,0.069-0.601C95.509,104.613,94.651,104.69,94.868,105.08z"/>
						<path d="M96.197,104.341c0.359-0.139,0.676-0.325,0.763-0.639C96.779,103.806,96.396,104.043,96.197,104.341z"/>
						<polygon points="99.399,104.646 98.945,104.515 98.134,104.778 						"/>
						<path d="M83.124,110.345l-0.995,0.95c0.101,0.523,0.558,0.654,0.909,0.26C83.167,111.096,83.519,110.708,83.124,110.345z"/>
						<path d="M88.46,112.365c-0.453-0.13-0.619-0.423-1.011-0.784l0.764,1.7L88.46,112.365z"/>
						<path d="M85.206,114.394c0.105,0.523-1.075,2.154,0.37,1.337C85.476,115.212,86.473,114.262,85.206,114.394z"/>
						<polygon points="66.419,120.72 66.709,120.556 65.354,117.817 						"/>
						<path d="M53.893,134.773c1.712-0.004-0.478-1.86,1.178-1.636c0.018-0.808-1.353-0.182-1.284-0.906
							C53.27,133.32,52.642,133.142,53.893,134.773z"/>
						<path d="M53.787,132.231c0.084-0.173,0.164-0.373,0.231-0.624C53.855,131.895,53.803,132.082,53.787,132.231z"/>
						<polygon points="137.337,223.384 137.919,224.414 137.831,223.205 						"/>
						<path d="M140.087,222.276l-0.704,1.83l1.353-1.277C140.496,222.8,140.032,222.745,140.087,222.276z"/>
						<path d="M33.667,148.28l-0.519,0.256c-0.534,0.29-0.534,0.333-0.54,0.42C32.94,148.719,33.293,148.494,33.667,148.28z"/>
						<polygon points="38.427,152.451 38.24,152.307 37.8,154.066 						"/>
						<path d="M49.49,155.771c-0.374-0.281-1.039-0.189-1.414-0.472C49.116,155.489,48.573,157.769,49.49,155.771z"/>
					</g>
				</g>
			</g>
		</g>
	</g>
	<g>
		<g>
			<g>
				<g>
					<g>
						<path d="M118.469,161.195c-0.448,0.091,0.236,1.158,0.273,1.39C119.292,162.015,118.312,160.908,118.469,161.195z"/>
						<polygon points="123.853,155.474 123.956,155.993 124.391,154.395 						"/>
						<path d="M130.044,152.556c-1.504-1.656-2.091,1.377-3.52,1.213l-0.391-0.354l0.243,1.792
							C127.598,154.324,128.845,152.464,130.044,152.556z"/>
						<path d="M135.329,155.171c-0.562-0.656,0.404-0.987-0.881,0.13c0.113,0.047,0.158,0.084,0.23,0.125
							C134.806,155.35,134.991,155.265,135.329,155.171z"/>
						<path d="M134.679,155.425C134.053,155.789,135.405,155.855,134.679,155.425L134.679,155.425z"/>
						<path d="M137.479,153.564l-0.538,1.08c0.391,0.359,1.201,0.097,1.071,0.554C138.718,154.412,138.327,154.057,137.479,153.564z
							"/>
						<path d="M137.621,151.766l-0.309,0.496C137.479,152.411,137.627,152.42,137.621,151.766z"/>
						<path d="M136.655,153.31l0.657-1.049c-0.273-0.253-0.584-0.874-0.329,0.422C136.787,152.075,136.863,152.714,136.655,153.31z"
							/>
						<path d="M135.982,153.269c-0.681-0.192-1.428-0.161-0.886-1.24C133.582,153.076,134.47,154.321,135.982,153.269z"/>
						<path d="M129.408,150.405l-0.912-0.26l-0.248,0.913C128.373,150.604,129.736,150.992,129.408,150.405z"/>
						<path d="M143.297,152.025c-0.142-0.437-0.81-0.96-1.124-1.456l-0.409,0.773C142.223,151.47,142.964,151.436,143.297,152.025z"
							/>
						<path d="M142.173,150.57l0.612-1.157C141.898,149.732,141.903,150.141,142.173,150.57z"/>
						<polygon points="136.753,149.546 135.902,151.771 137.043,149.384 						"/>
						<polygon points="146.94,150.355 146.856,151.563 147.129,149.669 						"/>
						<path d="M149.262,149.047c-0.023,0.977,1.18,1.076,0.991,1.761c0.585-0.452,0.819-1.394,1.031-2.241
							C150.912,149.16,150.303,149.343,149.262,149.047z"/>
						<path d="M151.703,147.279c-0.176,0.316-0.291,0.785-0.42,1.288C151.48,148.25,151.633,147.856,151.703,147.279z"/>
						<path d="M144.495,148.848c0.192,0.214,0.642,0.798,1.304,0.82l-0.923-0.98C144.76,148.737,144.629,148.792,144.495,148.848z"
							/>
						<path d="M144.846,148.657l0.031,0.031c0.42-0.16,0.711-0.271,0.836-0.318C145.603,148.406,145.342,148.493,144.846,148.657z"
							/>
						<path d="M144.399,148.888c0.035-0.015,0.062-0.025,0.096-0.04C144.405,148.752,144.365,148.724,144.399,148.888z"/>
						<path d="M139.735,149.413c0.249-0.912,1.079-2.158-0.513-2.611C139.199,147.784,140.11,148.04,139.735,149.413z"/>
						<path d="M143.247,147.661l-1.132,0.214c0.165,0.296,0.559,0.656,0.436,1.108L143.247,147.661z"/>
						<polygon points="143.565,147.059 143.247,147.661 143.667,147.581 						"/>
						<path d="M149.464,147.016c0.195-0.711,0.65-0.979,1.149-1.315c-0.684,0.046-1.338,0.206-1.902,0.478
							C148.804,146.58,148.866,147.35,149.464,147.016z"/>
						<path d="M147.171,147.712c0.017-0.041,0.05-0.072,0.065-0.112C147.13,147.53,147.068,147.521,147.171,147.712z"/>
						<path d="M155.905,143.192l-0.185-0.17c0.026,0.071,0.049,0.137,0.075,0.209L155.905,143.192z"/>
						<path d="M148.512,146.008c-0.539-0.018-0.663,0.388-0.74,0.863c0.268-0.27,0.575-0.509,0.939-0.693
							C148.669,145.997,148.624,145.885,148.512,146.008z"/>
						<path d="M152.921,146.036c-0.341-0.135-0.694-0.218-1.052-0.28C152.264,146.018,152.985,146.376,152.921,146.036z"/>
						<path d="M147.535,147.85c-0.013,0.029-0.022,0.059-0.04,0.082C147.754,148.114,147.679,148.001,147.535,147.85z"/>
						<path d="M147.535,147.85c0.143-0.273,0.183-0.642,0.238-0.979c-0.22,0.216-0.405,0.457-0.536,0.728
							C147.329,147.656,147.442,147.755,147.535,147.85z"/>
						<path d="M153.973,134.999c0.434,1.109-0.232,2.642-1.761,1.959c-0.584,1.264,1.727,4.493,3.509,6.065
							c-0.193-0.482-0.398-0.915,0.295-2.022c-0.627-0.42-2.859-0.321-2.481-1.691c1.054-1.18,1.26-0.134,2.171,0.129
							c-1.181-1.079,0.751-2.743-0.471-4.573l-0.826,1.241C154.24,135.812,154.426,135.125,153.973,134.999z"/>
						<path d="M153.773,143.814l-0.346,0.327c0.556-0.034,1.094,0.236,2.108,0.783c0.432-0.848,0.384-1.313,0.261-1.692
							l-2.086,0.809L153.773,143.814z"/>
						<path d="M151.592,145.02c-0.236-1.32,0.511-2.284-0.692-3.261c-1.163,0.652-0.378,1.375-0.854,2.223
							c1.8-1.212-0.248,0.914,1.468,0.911c-0.287,0.379-0.6,0.603-0.9,0.806c0.416-0.025,0.836-0.009,1.256,0.056
							c-0.031-0.02-0.053-0.034-0.079-0.051l-0.007,0.008l-0.007-0.019c-0.153-0.106-0.222-0.181-0.088-0.142
							c0-0.017,0.021-0.034,0.029-0.043c-0.064-0.169-0.096-0.328-0.122-0.482c0.676-0.026,0.233,0.261,0.122,0.482
							c0.021,0.06,0.031,0.122,0.059,0.185c0.005,0.006,0.01,0.008,0.014,0.011l1.637-1.564
							C152.939,144.175,152.44,144.453,151.592,145.02z"/>
						<path d="M139.063,143.798c0.109,0.075,0.146,0.159,0.191,0.242C139.312,143.837,139.313,143.717,139.063,143.798z"/>
						<path d="M140.197,144.124c-0.064,0.23,0.041,0.753-0.475,0.851c-0.565-0.161-0.264-0.56-0.468-0.934
							c-0.129,0.441-0.57,1.298,0.568,1.453l0.062-0.224c0.972,0.029,2.669,1.008,2.609,1.233
							C141.765,145.56,141.208,144.907,140.197,144.124z"/>
						<path d="M145.809,144.248l1.344-1.342l-1.304-0.619l0.331,0.587C145.147,143.073,145.701,143.726,145.809,144.248z"/>
						<polygon points="156.367,143.685 156.739,145.02 156.844,142.835 						"/>
						<polygon points="158.397,142.538 158.83,143.647 159.077,142.737 						"/>
						<path d="M221.789,84.522l-0.623,0.051C221.435,84.598,221.63,84.574,221.789,84.522z"/>
						<path d="M225.117,86.377l0.356-0.473C225.166,86.106,224.991,86.282,225.117,86.377z"/>
						<path d="M209.94,117.873c1.168,0.672,2.68,1.858,2.023,0.691l-0.771-1.074C210.808,117.931,210.375,117.976,209.94,117.873z"
							/>
						<path d="M241.587,94.215c-0.268-0.014-0.55-0.029-0.829-0.043c0.554,0.23,1.046,0.453,1.5,0.665
							C242.054,94.639,241.837,94.428,241.587,94.215z"/>
						<path d="M233.133,92.272c0.619,0.016,1.259,0.021,1.922,0.015C234.427,92.262,233.785,92.257,233.133,92.272z"/>
						<path d="M202.762,76.004l-1.163,0.884C202.452,77.331,202.391,76.543,202.762,76.004z"/>
						<path d="M179.71,131.87c0.815,0.175,1.382,0.142,1.827,0C180.497,131.538,179.434,130.801,179.71,131.87z"/>
						<path d="M229.579,73.019c-0.395,0.058-0.641,0.228-0.768,0.488C229.208,73.466,229.491,73.333,229.579,73.019z"/>
						<path d="M183.26,131.046c-0.161-0.068-0.293-0.078-0.447-0.126c-0.343,0.405-0.707,0.772-1.276,0.951
							C182.308,132.12,183.063,132.14,183.26,131.046z"/>
						<path d="M136.606,39.737c-0.021-0.077-0.066-0.133-0.078-0.217C136.43,39.667,136.493,39.712,136.606,39.737z"/>
						<path d="M123.333,17.843c0.229,0.03,0.542,0.194,0.844,0.334C124.076,18.022,123.831,17.903,123.333,17.843z"/>
						<path d="M167.095,139.03C166.686,139.319,167.086,139.193,167.095,139.03L167.095,139.03z"/>
						<path d="M162.717,135.412c0.032-0.177,0.024-0.38-0.094-0.656C162.721,135.057,162.744,135.266,162.717,135.412z"/>
						<path d="M184.219,121.619c0.014-0.005,0.025-0.009,0.04-0.014C184.017,121.438,184.061,121.471,184.219,121.619z"/>
						<path d="M166.17,138.814c0.236,0.065,0.486,0.093,0.736,0.078C166.771,138.845,166.543,138.814,166.17,138.814z"/>
						<path d="M166.525,139.327c-0.179,0.02-0.313,0.048-0.444,0.071C166.118,139.621,166.226,139.72,166.525,139.327z"/>
						<path d="M167.686,138.671c-0.246,0.14-0.51,0.197-0.779,0.221c0.125,0.038,0.194,0.087,0.189,0.137
							C167.217,138.949,167.39,138.838,167.686,138.671z"/>
						<path d="M173.954,55.581c-0.01-0.052-0.03-0.093-0.036-0.158C173.225,55.667,173.459,55.693,173.954,55.581z"/>
						<path d="M215.732,100.151c-0.015,0.022-0.012,0.058-0.024,0.081c0.027,0.003,0.061,0.007,0.085,0.01L215.732,100.151z"/>
						<path d="M216.916,98.514c0.014,1.787-0.459,1.792-1.122,1.728l2.142,3.137L216.916,98.514z"/>
						<path d="M213.555,80.585l0.553,1.616c-2.228,0.998-2.878-0.098-2.616,1.903c2.063-3.519,4.47,1.896,6.529-1.62l0.324,1.141
							c-0.189-0.145-0.335,0.049-0.521-0.095c0.497,2.471,2.427-2.048,3.972-0.573c0.487,0.611,0.652,1.368-0.006,1.567l1.882-0.143
							c0.374,0.287-0.058,0.859-0.43,0.574l2.304,0.853l-0.072,0.098c0.133-0.11,0.379-0.186,0.499-0.336
							c0.144-0.138,0.303-0.276,0.466-0.404c0.325-0.257,0.668-0.474,0.89-0.594c-0.017,0.653-0.405,0.275-0.602,0.745
							c0.39-0.166,0.815-0.313,1.273-0.443c-0.202,0.49-0.64,0.847-1.015,1.066c-0.38,0.216-0.7,0.294-0.839,0.135
							c-0.889,1.831-0.768,1.605-0.312,1.317c0.217-0.15,0.501-0.324,0.69-0.314c0.183,0.007,0.288,0.206-0.008,0.722
							c-0.266,0.054-0.515,0.117-0.748,0.189c-0.755,0.908-1.005,1.192-1.16,1.404c-0.168,0.205-0.224,0.346-0.908,0.799
							c0.376-0.227,1.206-0.815,1.924-1.499c0.739-0.673,1.397-1.426,2.12-1.617c-0.101,0.294-0.103,0.459,1.034,0.133
							c-1.451,0.871-0.867,0.777-0.445,0.908l-2.209,1.002c0.839-0.182,2.014-0.665,3.308-0.958
							c0.208,0.324-1.746,0.971-3.447,1.488c-0.09,0.125,0.739-0.11,1.634-0.405c0.902-0.291,1.842-0.656,2.5-0.512
							c-0.543,0.543,0.845,0.391,3.744,0.627c-0.75,0.351-2.202,0.162-3.039,0.34c1.027-0.034,2.091-0.047,3.193-0.041
							c0.033,0.059-0.897,0.098-1.361,0.121c0.716,0.043,1.655-0.001,2.598-0.034c0.947-0.031,1.903-0.046,2.78,0.123
							c1.677-0.021,1.444,0.143,0.727,0.319c-0.707,0.182-1.95,0.349-1.981,0.499c-0.405,0.09-0.279,0.183,0.753,0.33
							c-1.346,0.037-2.416-0.153-4.066-0.191c1.268,0.269,1.595,0.43,2.111,0.576c0.491,0.159,1.174,0.301,2.605,0.794
							c-1.093,0.055-2.136,0.086-3.13,0.094c1.546,0.062,2.951,0.265,4.05,0.608c1.108,0.338,1.903,0.82,2.482,1.32
							c1.47,0.071,2.82,0.104,3.538,0.084c-0.083,0.42-0.22,0.865-0.41,1.335c-0.744,0.005-1.515-0.358-2.457-0.798
							c0.118,0.119,0.236,0.236,0.36,0.338c-1.774,0.059-3.01-0.58-4.292-1.157c0.812,0.051,1.632,0.103,2.432,0.154
							c-1.435-0.608-3.301-1.15-5.24-1.472c0.295,0.104,0.461,0.236,0.466,0.352c-0.432-0.145-0.849-0.259-1.193-0.308
							c-0.366-0.05,0.219,0.142,0.796,0.41c-1.216-0.211-2.407-0.434-3.573-0.669l1.256,0.343c-1.12,0.039-2.15,0.034-3.09-0.013
							c1.067,0.685,2.249,1.596,2.871,2.598c0.634,0.996,0.677,2.098-0.267,3.036c-0.334-0.71-0.879-1.16-1.491-1.618
							c-0.619-0.455-1.307-0.917-2.081-1.579c1.053,0.589,1.265,0.256,1.239-0.18c-0.007-0.445-0.289-0.977,0.311-1.04
							c-0.64,0.076-1.498-0.497-1.77-0.711c0.305,0.516,0.483,1.092,0.535,1.728c-1.339-1.047-1.301-0.643-2.101-0.959
							c2.701,2.042,0.504,1.976,0.375,3.058c-0.586-0.839-1.027-1.77-0.245-1.873c-1.095-0.731-0.683,0.049-0.46,0.967
							c0.231,0.914,0.417,1.896-0.596,1.315c0.316-0.178,0.423-0.057,0.286-0.56c-0.004,0.126-0.033,0.236-0.08,0.33
							c-0.051,0.096-0.179,0.204-0.288,0.281c-0.232,0.161-0.511,0.258-0.78,0.289c-0.538,0.062-1.034-0.142-1.022-0.635l0.288-0.16
							c-2.132,0.62-6.033,2.846-5.233,5.29c-0.161-0.288-1.062-2.901-1.164-3.424l0.157,9.433c-0.63-2.127-4.066-6.272-2.957-8.171
							c-0.605-0.058-1.345-0.11-2.006,1.061c0.455,0.129,2.162,2.48,1.809,2.87c-2.254-1.63-1.398-0.78-3.777-1.952
							c0.684,0.195,1.625,3.553,0.816,3.816c-0.102-0.521-1.521-3.033-1.396-3.489l-0.446,3.948
							c0.212-0.774-1.145-2.622-1.978-3.281c0.481,0.503-1.665,0.724-2.026,1.266l1.139,0.324c-2.359,0.557-0.076,5.29-2.274,6.14
							c-0.043-0.752-1.208-4.175-2.47-4.045c0.248,1.796,1.379,8.548,0.073,10.642l-0.784-0.72l-0.958,1.701
							c-0.22-2.775-0.052-8.913,0.409-11.489c-1.137-0.325-0.723-0.945-1.884-0.294c-0.821-0.635,0.05-1.579,0.38-1.796
							l-3.049,0.788c0.991,1.764-1.266,2.842-0.438,4.309l2.134-3.33c0.987,1.759,0.706,6.004-1.425,6.623
							c-0.848-0.485-1.166-3.421-1.496-4.009c0.042,0.749-1.308,2.09-1.701,1.732l0.376-1.373c-1.427-0.161-0.649,3.269-2.799,2.16
							c-0.512,0.101-2.479-1.697-2.046-0.581c1.733,1.724,4.937,8.084,5.183,9.881c-0.227-0.064-3.343-0.846-4.353-1.625
							c-1.527-1.272-0.718-4.421-2.024-5.516c0.209,0.51,0.086,1.322,0.006,1.602c-0.682-0.197-0.534-1.636-1.47-0.915
							c0.704,1.93-2.194,0.852,0.25,1.795c-0.769,1.013-1.264,0.136-2.423,0.786c0.949,1.012,0.857,4.573,0.086,5.585
							c-0.163-0.498-0.683-1-0.927-1.227c-2.169,0.827-3.69,0.523-5.646,1.434c-0.392-0.362-1.59-0.456-1.568-1.441
							c-0.125,0.46-0.085,1.208-0.664,1.539c-1.923-1.043,1.222-0.886-0.577-2.383c0.435,1.109-0.851,2.22-1.388,3.298
							c1.052,1.532,2.129-0.623,2.668-1.701c1.091,2.284,0.738,5.388-0.797,7.414c-1.349,1.338-1.405-1.144-1.531-0.685
							c-3.231,1.047-0.692,5.224-4.001,4.776c-1.695-0.98-1.424-2.877-2.146-3.821c1.056-1.179,2.465-0.038,3.331-0.522
							l-1.428-0.166c0.189-0.684,0.895-1.47,1.575-1.276c-1.462-0.909-5.257,2.192-8.177,2.1c-0.185,0.686-0.664,1.534-0.045,1.958
							l0.645-0.557c1.241,0.85-0.624,2.289,0.576,2.391c-0.603,1.299-1.102,3.128-2.82,3.13l-1.054-1.536
							c0.261,0.471,1.387,0.554,1.54-0.14c-0.234,1.015-3.218-1.225-2.824,1.254l1.53,0.683c-0.603,1.31-1,3.661-2.491,3.728
							c1.346,1.371,0.197-0.324,1.993,1.176c-1.901-2.024,3.226-1.411,0.803-3.336c1.965,1.797,2.017,0.199,4.105,1.535
							c-0.297-0.53-0.918-0.848,0.253-1.074c-0.029-0.183-0.015-0.439-0.001-0.592c0.039-0.001,0.054,0.003,0.09,0.007
							c-0.032-0.013-0.057-0.024-0.088-0.037c0.006-0.104,0.002-0.123-0.032-0.012c-0.362-0.121-0.701-0.314-0.928-0.581
							c-0.081-1.504,1.597-2.253,1.848-3.171c0.743-0.034,0.04,0.751,0.656,1.175l0.375-1.372c0.662,1.178,2.605,1.239,1.487,2.646
							l1.338-0.57c1.097,0.315,2.289,0.081,2.701-0.743c0.744-0.031,0.923-2.09,0.837-0.881l1.699-1.733l0.164,0.295
							c2.103-0.812,3.221-4.003,6.587-2.911c0.538-0.632,1.065-1.344,2.373-1.542l0.724,0.947c0.703-0.785,3.136-0.201,2.992-1.477
							c2.294,2.382,4.553-1.408,6.336-1.64l-0.595-1.402c1.1-0.427,1.933-1.302,2.989-2.481l-0.659-1.176
							c0.663-1.538,3.334-0.527,5.073-1.507c0.099,0.523-0.415,0.618-0.872,0.491c3.454,1.722,3.584-4.152,6.483-3.08
							c0.275-0.673,0.699-0.689,1.185-0.546c-0.044,0.024-0.074,0.066-0.09,0.121c0.057-0.009,0.132-0.042,0.206-0.08
							c0.314,0.107,0.65,0.245,0.982,0.326c-0.344-0.198-0.654-0.349-0.877-0.381c0.362-0.203,0.859-0.624,1.271-1.193l0.858,1.192
							c0.037-0.039,0.075-0.053,0.111-0.098c0.775,0.222,0.145-0.827-0.613-1.669c0.178-0.348,0.313-0.728,0.362-1.137
							c1.445,1.895,1.123-1.404,2.797,0.554c-0.146-1.274,2.407-2.156,1.608-4.601c0.162,0.291,0.394,0.356,0.102,0.518
							c0.746-0.032,1.491-0.065,1.739-0.979l1.052,1.534l0.294-2.875c1.304,0.619,1.925,1.044,1.715,2.71
							c1.04-2.902,1.25-1.501,2.003-4.246l0.428,1.112c0.581-0.326,0.857-2.219,1.64-1.505c1.156,0.7,2.85-0.02,4.799-0.882
							c0.522-0.228,1.062-0.464,1.608-0.703c0.733-0.318,1.483-0.627,2.251-0.91c1.537-0.567,3.141-1.029,4.889-1.28
							c-1.919-1.023-1.038-1.008,0.109-1.011c1.146-0.002,2.663-0.072,1.432-0.987c1.08,0.401,2.33,0.324,2.162,1.201
							c0.993-0.922,2.36-1.21,3.495-1.59c1.111-0.369,1.976-0.825,1.402-1.818c1.421,0.244,0.996,0.869,1.92,0.973
							c0.011-0.203-0.042-0.776,0.927-0.691c0.974,0.082,0.522,0.521,0.511,0.925c3.007-1.585-0.538-2.72-3.97-3.737
							c2.897-0.124,3.437-0.558,1.626-1.434c1.69,0.062,3.881-0.073,2.776,0.764c0.53-0.189,2.39-0.756,3.741-1.362
							c1.35-0.606,2.106-1.211,0.224-1.377c1.237-0.05,1.486-0.549,1.237-0.676c1.221-0.508,1.928-0.75,2.648-1.064
							c-0.33-0.197-0.84-0.452-1.778-0.861c-0.053,0.09-0.11,0.178-0.171,0.264c-2.842-0.197-3.426-0.36-3.597-0.593
							c-0.161-0.227,0.077-0.531-0.886-0.884l0.506-0.001c0.013-0.937-0.794-1.138-1.43-1.283c-0.68-0.167-1.18-0.273-1.246-1.385
							l-2.221,0.451c-2.741,0.299-2.539-0.11-2.303-0.772c0.267-0.645,0.439-1.611-1.321-1.874
							c-0.148,0.231-0.309,0.456-0.482,0.674c-1.214-0.044-0.388-0.797,0.417-1.766c0.833-0.954,1.634-2.129,1.206-2.575
							c0.027-0.29,0.938,0.008,1.579,0.122c-0.681-1.393-1.374-1.227-2.183-0.802c-0.822,0.418-1.888,1.027-3.242,0.558
							c0.592-0.837,3.299-1.178,1.726-2.226c-0.043-0.489-2.16-0.676-4.099-0.929c-1.976-0.272-3.735-0.589-4.264-1.973
							c0.041,0.909-0.056,1.742-1.419,1.686c-0.427-0.147-0.789-0.509-1.169-0.966c-0.176-0.221-0.415-0.497-0.555-0.722
							c-0.117-0.213-0.237-0.427-0.363-0.626c-0.506-0.796-1.127-1.344-2.198-0.514c-0.039-0.263,0.005-0.472,0.09-0.647
							c-1.133,0.121-3.208-0.501-4.337,0.416c1.556-4.801-6.319-0.613-4.155-4.653l-2.682-1.142l0.286-0.379
							c-1.499-1.137-2.593-0.474-3.685,0.193c-0.233-0.477,0.244-0.708,0.388-0.903c-1.965-2.087-2.294-2.041-5.373-1.088
							l0.487-1.425c-0.949,0.475-2.374-3.897-5.538-3.61c0.102-0.137,0.286-0.366,0.571-0.452c-3.462,0.14-4.402-7-7.907-2.728
							l-2.37,0.254c2.062,1.568-1.436,1.898-0.928,3.185c-1.037-0.19-1.532-2.66-0.31-2.327l0.044,0.33
							c1.722-2.282-2.338-2.371-1.378-4.037c-4.509-2.232-8.11-5.907-12.216-8.219l-0.548,2.193l-1.393-0.881
							c-0.142-0.654,0.292-1.788,1.286-1.159c0.037-1.388-2.225,0-2.478,0.406c-1.612-1.86,1.99-1.842,1.393-2.218l-0.922-0.302
							l0.07,0.328c-1.104,0.429-1.61,1.237-2.805,0.482c-0.582-0.805,0.229-1.41-0.041-1.649c0.075-0.136,0.004-0.257-0.446-0.308
							l-1.742-1.135l-0.08,1.919c-1.211,0.325-1.678-0.992-1.752,1.19c0.178-3.331-6.316-4.576-6.637-5.809
							c-1.727,0.514-2.838-0.099-4.155-0.969c0.177,0.501-0.529,2.332-1.615,1.487c2.32-3.32-1.377-2.704-0.991-5.772
							c-0.033,2.153-3.627-1.386-3.544,1.74c-0.847-0.817,0.644-1.362,0.328-2.599c-3.108,0.116-4.769-3.672-7.955-4.765
							c-0.293,0.442-0.178,1.416-1.176,1.775l-0.317-3.154c-0.702-0.079-1.96,2.408-2.164,0.228
							c-0.058,0.472-0.148,1.182-0.616,1.124c-4.557-5.323-12.757-4.374-16.345-11.743c0.314,1.323-0.262,1.133-0.885,0.846
							c0.279,0.424-0.619,1.147-0.877,1.82l-1.519-3.053c-1.375,1.517-2.689-1.272-3.832,0.269l0.935,0.109
							c-2.08,1.433-0.887,5.163-2.383,7.623c2.347-1.638,1.28,4.945,4.881,2.728c0.144,0.739-0.79,0.629-0.878,1.336
							c1.057-0.834,1.757-0.753,2.573,0.304l-0.264,0.205c3.16,1.334,3.887,3.093,6.901,5.605l0.414-1.389
							c0.64,0.554,0.585,1.029,0.76,1.524c1.845-1.461-1.991-1.192-0.116-2.888c-0.387,3.068,5.12,2.762,4.236,6.012
							c1.113,0.61,0.441-1.628,1.553-1.017l-0.119,0.943l0.82-0.862c0.647,0.557,0.497,1.735,0.172,2.415
							c-0.137-0.173-0.606-0.082-0.827-0.127c0.463,1.431,2.856,1.108,3.023,1.583l-0.821-1.055
							c3.45,0.886,6.641,3.897,10.444,3.867l0.09-0.712c2.839,0.1,1.464,1.609,4.212,2.415l-0.165,0.094
							c0.809-0.328,1.629-0.274,2.272,0.153c-0.994,0.362,0.463,1.973-0.764,2.305c3.072,0.121,1.701-0.283,4.484-1.628l-0.147,1.18
							c1.022-0.597,1.317-1.041,2.69-0.641c-1.463,0.306-0.003,1.916-1.732,2.43c1.459,3.526,5.008-0.127,4.534,3.649
							c2.635-2.089-1.448-2.702-0.471-2.93c-0.088-1.186,2.062-1.512,2.733-0.807c0.798,0.5-0.433,4.228,1.683,5.282
							c-0.201-0.123-0.324,0.075-0.525-0.046c0.414,1.108,2.029-0.129,2.39,1.506c1.409-1.361,1.194,0.754,2.461-1.263l-2.172-0.529
							c1.376,0.026,3.695-1.89,4.853,0.249c-0.364,0.35-1.191,0.624-1.721,0.741c0.195,0.896,1.224,0.123,1.43,1.046
							c-1.268,2.019-2.57-0.776-4.581,0.209c0.092,1.184,3.006-0.355,1.217,1.609c2.372-2.447,1.864,1.455,4.448-0.004l-0.76,1.209
							c0.329-0.08,1.107-0.428,1.502-0.178l-1.61,1.236c1.882-0.785,1.562,2.386,3.061,2.21c-2.32-1.179,0.287-1.789-0.199-3.222
							c3.727-0.182-0.113,4.154,3.381,5.233c-0.524-0.05-1.213-1.611-0.232-1.837c0.467,0.579,1.009,1.485,1.031,2.341
							c2.242,0.853,0.363-1.465,1.667-1.764c-0.096,1.912,1.363-0.077,2.545-0.079l-0.671,1.283c1.962,2.09,2.047-2.329,3.68-0.194
							l-1.852,1.29l1.368,0.138l-1.003,1.332c1.796-0.431,2.029,0.05,3.012,1.093c0.199-1.049,1.386-2.238,2.469-1.716
							c0.321,1.143-1.049,1.001,0.552,1.615c-0.764,0.62-1.668,1.427-1.699-0.098c-0.288,0.381-0.76,0.625-1.047,1
							c0.317,1.287,1.854,1.237,2.405,1.514c-0.184-0.159-0.399-0.361-0.431-0.611l3.12-0.617c0.089,0.662-0.388,0.904-0.858,1.139
							c0.515,0.096,1.132-0.33,1.84-0.096c-0.719,0.95-1.247,2.045-2.426,2.047l2.689-0.052c-0.1,0.525,0.409,1.806-0.064,2.047
							c0.829,1.221,3.895-0.52,4.995,1.096c0.186-0.16,0.448-0.268,0.851-0.245c1.311,0.996,1.907,2.945,4.364,2.421l-0.022,2.375
							c1.557,0.283-0.063-3.04,2.528-2.568c1.886,0.238-0.256,1.9,0.02,2.711c1.279-0.526,3.65-1.718,4.29,0.563
							C214.303,81.157,214.075,80.683,213.555,80.585z M227.754,87.049c-0.426,0.118-1.394,0.666-0.812,0.007
							C228.385,85.945,227.952,86.614,227.754,87.049z M235.278,94.136c-0.493-0.296,0.08-0.305,1.219-0.241
							C236.442,94.052,236.082,94.164,235.278,94.136z M171.473,135.643c0.004-0.028,0.006-0.048,0.005-0.08
							C172.446,135.727,172.093,135.649,171.473,135.643z M169.696,135.793c-0.065,0.254,0.032,0.431,0.183,0.583
							c-0.052-0.381,0.276-0.564,0.705-0.655C170.314,135.429,170.006,135.285,169.696,135.793z M173.857,44.505l0.11,0.487
							C173.123,45.017,173.481,44.78,173.857,44.505z"/>
						<path d="M234.131,92.489c0.456,0.054,0.921,0.131,1.387,0.211C235.195,92.584,234.716,92.5,234.131,92.489z"/>
						<path d="M202.977,75.841c-0.011-0.019-0.03-0.024-0.042-0.041c-0.068,0.062-0.124,0.132-0.172,0.204L202.977,75.841z"/>
						<path d="M187.778,113.603c0.4,0.04,0.687,0.197,0.919,0.39C188.562,113.665,188.293,113.463,187.778,113.603z"/>
						<path d="M162.763,141.814l0.804-0.799c-0.436,0.287-0.739,0.08-1.074-0.015C162.661,141.295,163.055,141.649,162.763,141.814z
							"/>
						<path d="M150.534,137.713c-0.065,0.227-0.291,0.16-0.353,0.388l0.327,0.589C151.091,138.364,151.279,137.675,150.534,137.713z
							"/>
						<path d="M159.804,137.896c-0.599-1.063-1.028-0.402-1.607,0.124c0.039-0.023,0.073-0.051,0.12-0.057
							C158.848,139.596,159.327,138.744,159.804,137.896z"/>
						<path d="M158.057,138.132c-0.184,0.151-0.383,0.281-0.612,0.325C157.659,139.111,157.76,138.465,158.057,138.132z"/>
						<path d="M168.13,137.431c-0.455-0.131,0.467,1.502,0.073,1.14C168.511,140.141,169.536,135.86,168.13,137.431z"/>
						<polygon points="157.533,134.535 158.421,135.777 158.28,134.502 						"/>
						<path d="M163.348,132.99l-1.26,0.138c0.125,0.22,0.051,0.419-0.069,0.601C162.706,133.458,163.565,133.38,163.348,132.99z"/>
						<path d="M162.019,133.729c-0.359,0.139-0.676,0.325-0.763,0.639C161.437,134.264,161.819,134.027,162.019,133.729z"/>
						<polygon points="158.817,133.424 159.271,133.555 160.082,133.292 						"/>
						<path d="M175.092,127.726l0.995-0.95c-0.101-0.523-0.558-0.654-0.909-0.26C175.049,126.974,174.697,127.362,175.092,127.726z"
							/>
						<path d="M169.756,125.705c0.453,0.13,0.619,0.423,1.011,0.784l-0.764-1.7L169.756,125.705z"/>
						<path d="M173.01,123.676c-0.105-0.523,1.075-2.154-0.37-1.337C172.74,122.859,171.743,123.808,173.01,123.676z"/>
						<polygon points="191.796,117.35 191.507,117.514 192.862,120.253 						"/>
						<path d="M204.323,103.297c-1.712,0.004,0.478,1.86-1.178,1.636c-0.018,0.808,1.353,0.182,1.284,0.906
							C204.946,104.75,205.574,104.928,204.323,103.297z"/>
						<path d="M204.429,105.839c-0.084,0.173-0.164,0.373-0.231,0.624C204.361,106.175,204.413,105.988,204.429,105.839z"/>
						<polygon points="120.879,14.686 120.297,13.657 120.384,14.865 						"/>
						<path d="M118.129,15.794l0.704-1.83l-1.353,1.277C117.72,15.27,118.184,15.325,118.129,15.794z"/>
						<path d="M224.549,89.79l0.519-0.256c0.534-0.29,0.534-0.333,0.54-0.42C225.276,89.351,224.923,89.576,224.549,89.79z"/>
						<polygon points="219.789,85.619 219.976,85.763 220.416,84.004 						"/>
						<path d="M208.725,82.3c0.374,0.281,1.039,0.189,1.414,0.472C209.1,82.581,209.643,80.301,208.725,82.3z"/>
					</g>
				</g>
			</g>
		</g>
	</g>
	<g>
		<path class="st0" d="M77.31,72.261C66.154,86.908,58.589,92.34,46.948,97.966c-8.147,3.977-16.198,5.917-23.57,5.917
			c-12.028,0-20.758-5.723-20.758-13.774c0-7.275,7.76-10.476,13.773-12.125c12.901-3.298,19.303-4.268,56.842-7.372
			c5.82-13.192,8.245-23.28,11.932-40.74c-5.724,11.058-8.245,15.52-13.58,22.698c-4.851,6.596-10.477,14.356-15.132,14.356
			c-1.844,0-3.589-1.746-3.783-3.977l-3.783-35.987c-0.679-6.111-2.91-7.275-5.529-7.275c-3.977,0-6.887,5.335-6.887,12.998
			c0,6.402,1.746,11.446,5.82,19.109l-1.843,0.485c-5.433-10.282-6.984-15.617-6.984-21.534c0-7.76,4.947-13.774,11.543-13.774
			c7.372,0,11.058,5.529,11.737,23.377c0.582,17.46,1.552,22.213,2.812,22.213c2.231,0,7.76-8.245,10.186-11.64
			c7.081-9.894,12.416-20.273,17.848-32.398h7.469c-2.812,17.945-7.469,34.726-16.684,51.41l11.834-1.164v2.037L77.31,72.261z
			 M21.147,81.185C7.857,83.319,5.045,85.065,5.045,88.46c0,5.141,6.11,7.469,20.563,7.469c21.729,0,34.823-3.783,46.561-23.086
			L21.147,81.185z"/>
	</g>
	<g>
		<path class="st1" d="M176.726,222.235c-3.31-2.516-4.854-5.92-4.854-9.619c0-6.068,4.412-17.464,12.133-31.079l7.28-12.728
			c14.781-25.751,15.002-26.491,15.002-27.231c0-1.184-0.662-1.775-2.647-1.775c-6.397,0-17.869,7.104-25.149,12.728l-3.53-1.776
			c6.618-5.624,19.193-15.688,32.65-15.688c7.28,0,10.369,2.812,10.369,7.4c0,2.367-0.883,3.995-7.501,16.427l8.604-8.287
			c9.927-9.62,18.972-14.8,26.914-14.8c6.177,0,11.251,3.256,11.251,8.584c0,6.955-9.045,21.015-20.737,30.486
			c-7.941,6.364-15.884,9.62-24.487,9.62c-3.53,0-9.266-0.592-13.899-2.812c-9.927,12.432-15.442,27.823-19.634,40.699
			L176.726,222.235z M199.89,178.726c4.633,2.22,7.721,2.812,11.251,2.812c10.369,0,15.663-4.884,22.281-14.355
			c7.722-11.396,12.134-21.459,12.134-25.012c0-1.628-0.882-2.516-2.647-2.516c-1.985,0-4.191,1.036-7.5,3.108
			c-9.266,5.919-23.385,19.239-31.327,30.19L199.89,178.726z"/>
	</g>
</g>
</svg>
